<!DOCTYPE svg PUBLIC "-//W3C//DTD SVG 1.1//EN" "http://www.w3.org/Graphics/SVG/1.1/DTD/svg11.dtd" [
	<!ENTITY ns_flows "http://ns.adobe.com/Flows/1.0/">
]><svg xmlns="http://www.w3.org/2000/svg" width="28" height="26" viewBox="1 1.28 28 26" overflow="visible" enable-background="new 1 1.28 28 26"><path fill="#B7B7B7" d="M15.312 1.5c-7.181 0-12.995 5.108-12.995 11.415 0 2.976 1.307 5.678 3.432 7.71-.196.693-.497 1.439-.951 2.221-.936 1.611-3.263 3.65-3.263 3.65s4.505.192 7.679-1.847c.433-.278.879-.672 1.318-1.126 1.481.515 3.089.806 4.779.806 7.174 0 12.995-5.111 12.995-11.414.001-6.307-5.82-11.415-12.994-11.415"/><path fill="#fff" d="M15.902 14.978l.053.833h-1.911c-.129-.02-.167-.397-.167-.946 0-2.895 3.178-3.557 3.178-5.713 0-.947-.757-1.627-1.778-1.627-1.06 0-1.552.586-1.665 1.002.605.132.908.586.908 1.041 0 .567-.454 1.135-1.249 1.135-.775 0-1.494-.624-1.494-1.835 0-1.608 1.476-3.046 3.651-3.046s3.784 1.4 3.784 3.368c.001 2.874-3.31 3.461-3.31 5.788m-.946 4.975c-.852 0-1.438-.681-1.438-1.438 0-.756.586-1.456 1.438-1.456.833 0 1.456.681 1.456 1.456 0 .777-.623 1.438-1.456 1.438"/><rect width="510" height="360.609" fill="none"/></svg>